<?xml version="1.0" standalone="no"?>
<!DOCTYPE svg PUBLIC "-//W3C//DTD SVG 20010904//EN"
 "http://www.w3.org/TR/2001/REC-SVG-20010904/DTD/svg10.dtd">
<svg version="1.0" xmlns="http://www.w3.org/2000/svg"
 width="200.000000pt" height="200.000000pt" viewBox="0 0 200.000000 200.000000"
 preserveAspectRatio="xMidYMid meet">

<g transform="translate(0.000000,200.000000) scale(0.100000,-0.100000)"
fill="#000000" stroke="none">
<path d="M0 1000 l0 -1000 1000 0 1000 0 0 1000 0 1000 -1000 0 -1000 0 0
-1000z m507 184 c15 -12 34 -38 42 -59 13 -32 13 -43 0 -78 -20 -57 -66 -87
-135 -87 l-54 0 0 -70 0 -70 -50 0 -50 0 0 196 0 196 109 -4 c93 -2 114 -6
138 -24z m1181 -16 c3 -35 6 -38 32 -38 23 0 31 -5 36 -25 9 -38 -2 -55 -36
-55 l-30 0 0 -63 c0 -68 10 -87 47 -87 20 0 23 -5 23 -40 l0 -40 -49 0 c-39 0
-56 6 -80 26 -30 25 -31 28 -31 115 0 82 -1 89 -20 89 -17 0 -20 7 -20 40 0
33 3 40 20 40 17 0 20 7 20 41 l0 40 43 -3 c41 -3 42 -4 45 -40z m-653 -58
c12 -10 15 -9 15 4 0 13 11 16 50 16 l50 0 0 -155 0 -155 -50 0 c-39 0 -50 3
-50 16 0 15 -2 15 -25 0 -31 -20 -97 -21 -136 0 -37 19 -69 83 -69 139 0 51
31 120 61 136 54 28 119 28 154 -1z m-335 -1 l0 -20 26 20 c15 12 37 21 50 21
22 0 24 -4 24 -50 l0 -50 -34 0 c-52 0 -66 -27 -66 -127 l0 -83 -50 0 -50 0 0
155 0 155 50 0 c44 0 50 -3 50 -21z m698 5 c20 -14 22 -14 22 0 0 12 11 16 50
16 l50 0 -2 -227 -3 -228 -45 0 -45 0 -3 88 -3 88 -22 -16 c-12 -8 -42 -15
-68 -15 -136 0 -190 190 -80 283 38 32 112 37 149 11z"/>
<path d="M360 1085 l0 -45 40 0 c38 0 60 18 60 49 0 20 -33 41 -66 41 -34 0
-34 0 -34 -45z"/>
<path d="M940 1030 c-28 -28 -26 -81 3 -108 30 -28 52 -28 82 3 30 30 32 64 4
99 -25 31 -61 34 -89 6z"/>
<path d="M1315 1025 c-14 -13 -25 -36 -25 -50 0 -29 40 -75 65 -75 26 0 65 46
65 78 0 32 -36 72 -64 72 -9 0 -28 -11 -41 -25z"/>
</g>
</svg>
